<?xml version="1.0" encoding="utf-8"?>
<!-- Generator: Adobe Illustrator 27.2.0, SVG Export Plug-In . SVG Version: 6.00 Build 0)  -->
<svg version="1.1" id="Layer_1" xmlns="http://www.w3.org/2000/svg" xmlns:xlink="http://www.w3.org/1999/xlink" x="0px" y="0px"
	 viewBox="0 0 560 400" style="enable-background:new 0 0 560 400;" xml:space="preserve">
<style type="text/css">
	.st0{fill:#FFFFFF;}
	.st1{fill:#041E42;}
	.st2{fill:#7B303E;}
	.st3{fill:#AC162C;}
	.st4{fill:#55565A;}
	.st5{fill:#8E9090;}
</style>
<g id="XMLID_1_">
	<path class="st0" d="M397.2,150.5c-6.4-15.1-15.6-28.7-27.2-40.4c-11.7-11.7-25.3-20.8-40.4-27.2c-15.7-6.6-32.3-10-49.5-10
		c-17.1,0-33.8,3.4-49.5,10c-15.1,6.4-28.7,15.6-40.4,27.2c-11.7,11.7-20.8,25.3-27.2,40.4c-6.6,15.7-10,32.3-10,49.5
		s3.4,33.8,10,49.5c6.4,15.1,15.6,28.7,27.2,40.4c11.7,11.7,25.3,20.8,40.4,27.2c15.7,6.6,32.3,10,49.5,10c17.2,0,33.8-3.4,49.5-10
		c15.1-6.4,28.7-15.6,40.4-27.2c11.7-11.7,20.8-25.3,27.2-40.4c6.6-15.7,10-32.3,10-49.5S403.8,166.2,397.2,150.5z M280,320L280,320
		c-66.2,0-120-53.7-120-120S213.8,80.1,280,80.1c66.3,0,119.9,53.7,119.9,119.9S346.3,320,280,320z M290.8,118.2L280,90.9
		l-11.5,27.3c-40.4,5.4-71.5,40-71.5,81.9c0,45.6,37.3,82.7,83,82.7s82.3-37,82.3-82.7C362.4,158.3,331.2,123.7,290.8,118.2z
		 M344.2,195.6l-13.5,11.8v14.2l-5-2.5l-9.1,0.6l-9,7.9l5.3,6.6l-11.6,1.9l7.3,10.4V259l-19.7-9.7l-1.6-4.1l0,0l0,0.1l-7.1,34.5
		l-7.1-34.3l-1.5,3.8l-19.7,9.7v-12.5L259,236l-11.5-1.9l5.3-6.6l-9-7.8h0l-9.3-0.6l-5,2.5v-14.3l0,0l-13.4-11.7l13.4-0.1v-2.8l0,0
		v2.1l-9.1-24.1l24.5,9.3l0.4-13.2l16.8,16.7l-6.3-37.5l15.7,10.3l8.4-39l8.8,40.3l0,0l-0.3-1.2l15.9-10.4c0,0-5.9,34.9-6.3,37.5
		l16.8-16.7l0.5,13.2l24.5-9.3l-9.2,24.5v0.3L344.2,195.6z"/>
	<path class="st1" d="M280,88.1c-61.8,0-111.9,50.1-111.9,111.9S218.2,311.9,280,311.9S391.9,261.8,391.9,200
		C391.9,138.2,341.8,88.1,280,88.1z M280,282.8c-45.7,0-83-37-83-82.7c0-41.9,31.1-76.4,71.5-81.9L280,91l10.8,27.3
		c40.4,5.4,71.5,40,71.5,81.9C362.4,245.8,325.7,282.8,280,282.8z"/>
	<path class="st2" d="M229.6,207.3v-11.7l-13.4,0.1L229.6,207.3z M229.6,205.8l-10.4-9.1l10.4,0V205.8z M252.8,227.5l-5.3,6.6
		L259,236l7-10.2v-4.7l-22.2-1.5L252.8,227.5z M266,221.2v4.7l-6.4,9.1l-10.1-1.6c0,0,4.6-5.6,4.7-6l-8.6-7.5L266,221.2L266,221.2z
		 M330.6,192.7l-0.1-8.3l-6.7,16.7l-11.5-5.5l25.6-22.9l-23.4,8.9l-6.8,11.8l-15.1-7.2l0,0l-1.7-19.2l-0.5-2.2l12.4-16.5l-14,9.2
		l-0.3-1.2l15.9-10.4c0,0-5.9,34.9-6.3,37.5l16.8-16.7l0.5,13.2l24.5-9.3l-9.2,24.5L330.6,192.7L330.6,192.7z M344.2,195.6
		l-13.5,11.8v-11.8L344.2,195.6z M262.2,183.5l-16.8-16.7L245,180l-24.5-9.3l9.1,24.1v-2.1l-0.1-8.1l6.8,16.5l31.3-14.9l1.7-19.2
		l2.3-10.7l-15.7-10.3C255.9,146,262.2,183.5,262.2,183.5z M245.5,196.7l-22.9-24l23.5,8.8l0.4-12.1l15.7,15.6c0,0,0,0,0,0l2.5,2.5
		L245.5,196.7z M269.3,167l-0.8,8.6l-11.1-27.1c0-0.1,0-0.2,0-0.2l14,9.2L269.3,167z M316.6,219.7l-9,7.9l5.3,6.6l-11.6,1.9
		l-7.1-10.2v-4.7L316.6,219.7z M280,260.7l-6.9-15.7l-0.1,0.3l7,34.2l7.1-34.5l0-0.1L280,260.7z M274.9,249.2l5.1,11.6l0,14.1
		L274.9,249.2z"/>
	<path class="st3" d="M264.7,187.5l-19.3,9.2l-22.9-24l23.5,8.8l0.4-12.1l15.7,15.6c0,0,0,0,0,0L264.7,187.5z M229.6,205.8v-9.1
		l-10.4,0L229.6,205.8z M245.6,219.8l8.6,7.5c-0.1,0.4-4.7,6-4.7,6l10.1,1.6l6.4-9.1v-4.7l0,0L245.6,219.8z M314.6,181.6l-6.8,11.8
		l4.7,2.2l25.6-23L314.6,181.6z M290.4,164.9l12.4-16.5l-14,9.2L290.4,164.9z M274.9,249.2L280,275l0-14.1L274.9,249.2z
		 M257.4,148.4l11.1,27.1l0.8-8.6l2.1-9.6l-14-9.2C257.4,148.3,257.4,148.3,257.4,148.4z"/>
	<path class="st4" d="M330.5,184.4l-6.7,16.7l-31.2-14.9L291,167l-10.9-49.8L269.4,167l-1.7,19.2l-31.3,15l-6.8-16.5l0.1,8.1v28.8
		l5-2.5l31.5,2.1v4.6l-14.3,20.6v12.5l19.7-9.7l1.6-4.1l6.9,15.7l7.1-15.7l1.6,4.1l19.7,9.7v-12.5l-14.3-20.6v-4.7l31.5-2.1l5,2.5
		v-28.8L330.5,184.4z M280,255.4l-6.8-15.5l-2.3-5.4l1.4,6.8l-2.5,6.2l-15.9,7.8v-8.3l14.3-20.6v-7.4l-34.1-2.3l-2.4,1.2v-22.5
		l3.5,8.5l31.4-15l2.1,10l1-11.5l0,0l1.8-20.3l8.6-41.3V255.4z"/>
	<path class="st5" d="M271.5,167.3L280,126v129.5l-6.8-15.5l-2.3-5.4l1.4,6.8l-2.5,6.2l-15.9,7.8v-8.3l14.3-20.6v-7.4l-34.1-2.3
		l-2.4,1.2v-22.5l3.5,8.5l31.4-15l2.1,10l1-11.5l0,0L271.5,167.3z M399.9,200c0,66.2-53.7,119.9-119.9,119.9
		c-66.2,0-119.9-53.7-119.9-119.9S213.8,80.1,280,80.1C346.3,80.1,399.9,133.8,399.9,200z M391.9,200c0-61.8-50.1-111.9-111.9-111.9
		S168.1,138.2,168.1,200S218.2,311.9,280,311.9C341.8,311.9,391.9,261.8,391.9,200z"/>
</g>
</svg>
